<mxfile host="app.diagrams.net" agent="Mozilla/5.0 (Windows NT 10.0; Win64; x64) AppleWebKit/537.36 (KHTML, like Gecko) Chrome/130.0.0.0 Safari/537.36 Edg/130.0.0.0" version="24.8.0">
  <diagram name="Página-1" id="UjNvadUnhlNsIRVbJSXi">
    <mxGraphModel dx="1236" dy="773" grid="1" gridSize="10" guides="1" tooltips="1" connect="1" arrows="1" fold="1" page="1" pageScale="1" pageWidth="827" pageHeight="1169" math="0" shadow="0">
      <root>
        <mxCell id="0" />
        <mxCell id="1" parent="0" />
        <mxCell id="JGdbrBbD8qjHiPF7L-dN-1" value="" style="rounded=1;whiteSpace=wrap;html=1;" vertex="1" parent="1">
          <mxGeometry x="60" y="160" width="120" height="60" as="geometry" />
        </mxCell>
        <mxCell id="JGdbrBbD8qjHiPF7L-dN-8" style="edgeStyle=orthogonalEdgeStyle;rounded=0;orthogonalLoop=1;jettySize=auto;html=1;exitX=1;exitY=0.5;exitDx=0;exitDy=0;entryX=0;entryY=0.5;entryDx=0;entryDy=0;" edge="1" parent="1" source="JGdbrBbD8qjHiPF7L-dN-3" target="JGdbrBbD8qjHiPF7L-dN-7">
          <mxGeometry relative="1" as="geometry" />
        </mxCell>
        <mxCell id="JGdbrBbD8qjHiPF7L-dN-3" value="Interface mostra os apartamentos diponiveis" style="text;html=1;align=center;verticalAlign=middle;whiteSpace=wrap;rounded=0;" vertex="1" parent="1">
          <mxGeometry x="60" y="160" width="120" height="60" as="geometry" />
        </mxCell>
        <mxCell id="JGdbrBbD8qjHiPF7L-dN-6" value="" style="rounded=1;whiteSpace=wrap;html=1;" vertex="1" parent="1">
          <mxGeometry x="250" y="160" width="120" height="60" as="geometry" />
        </mxCell>
        <mxCell id="JGdbrBbD8qjHiPF7L-dN-13" style="edgeStyle=orthogonalEdgeStyle;rounded=0;orthogonalLoop=1;jettySize=auto;html=1;exitX=1;exitY=0.5;exitDx=0;exitDy=0;entryX=0;entryY=0.5;entryDx=0;entryDy=0;" edge="1" parent="1" source="JGdbrBbD8qjHiPF7L-dN-7" target="JGdbrBbD8qjHiPF7L-dN-11">
          <mxGeometry relative="1" as="geometry" />
        </mxCell>
        <mxCell id="JGdbrBbD8qjHiPF7L-dN-7" value="Cliente escolhe o apartamento" style="text;html=1;align=center;verticalAlign=middle;whiteSpace=wrap;rounded=0;" vertex="1" parent="1">
          <mxGeometry x="250" y="160" width="120" height="60" as="geometry" />
        </mxCell>
        <mxCell id="JGdbrBbD8qjHiPF7L-dN-11" value="" style="rounded=1;whiteSpace=wrap;html=1;" vertex="1" parent="1">
          <mxGeometry x="470" y="160" width="120" height="60" as="geometry" />
        </mxCell>
        <mxCell id="JGdbrBbD8qjHiPF7L-dN-18" style="edgeStyle=orthogonalEdgeStyle;rounded=0;orthogonalLoop=1;jettySize=auto;html=1;exitX=1;exitY=0.5;exitDx=0;exitDy=0;" edge="1" parent="1" source="JGdbrBbD8qjHiPF7L-dN-12" target="JGdbrBbD8qjHiPF7L-dN-17">
          <mxGeometry relative="1" as="geometry" />
        </mxCell>
        <mxCell id="JGdbrBbD8qjHiPF7L-dN-12" value="Interface mostra os detalhes do apartamento escolhido" style="text;html=1;align=center;verticalAlign=middle;whiteSpace=wrap;rounded=0;" vertex="1" parent="1">
          <mxGeometry x="470" y="160" width="120" height="60" as="geometry" />
        </mxCell>
        <mxCell id="JGdbrBbD8qjHiPF7L-dN-16" value="" style="rounded=1;whiteSpace=wrap;html=1;" vertex="1" parent="1">
          <mxGeometry x="670" y="160" width="120" height="60" as="geometry" />
        </mxCell>
        <mxCell id="JGdbrBbD8qjHiPF7L-dN-29" style="edgeStyle=orthogonalEdgeStyle;rounded=0;orthogonalLoop=1;jettySize=auto;html=1;exitX=0.5;exitY=1;exitDx=0;exitDy=0;entryX=0.5;entryY=0;entryDx=0;entryDy=0;" edge="1" parent="1" source="JGdbrBbD8qjHiPF7L-dN-17" target="JGdbrBbD8qjHiPF7L-dN-28">
          <mxGeometry relative="1" as="geometry" />
        </mxCell>
        <mxCell id="JGdbrBbD8qjHiPF7L-dN-17" value="Cliente escolhe a data de reserva e faz a solicitação" style="text;html=1;align=center;verticalAlign=middle;whiteSpace=wrap;rounded=0;" vertex="1" parent="1">
          <mxGeometry x="670" y="160" width="120" height="60" as="geometry" />
        </mxCell>
        <mxCell id="JGdbrBbD8qjHiPF7L-dN-20" value="" style="rounded=1;whiteSpace=wrap;html=1;" vertex="1" parent="1">
          <mxGeometry x="470" y="280" width="120" height="60" as="geometry" />
        </mxCell>
        <mxCell id="JGdbrBbD8qjHiPF7L-dN-21" value="Site envia um email confirmando a reserva" style="text;html=1;align=center;verticalAlign=middle;whiteSpace=wrap;rounded=0;" vertex="1" parent="1">
          <mxGeometry x="470" y="280" width="120" height="60" as="geometry" />
        </mxCell>
        <mxCell id="JGdbrBbD8qjHiPF7L-dN-23" value="" style="rounded=1;whiteSpace=wrap;html=1;" vertex="1" parent="1">
          <mxGeometry x="60" y="40" width="120" height="60" as="geometry" />
        </mxCell>
        <mxCell id="JGdbrBbD8qjHiPF7L-dN-25" style="edgeStyle=orthogonalEdgeStyle;rounded=0;orthogonalLoop=1;jettySize=auto;html=1;exitX=0.5;exitY=1;exitDx=0;exitDy=0;entryX=0.5;entryY=0;entryDx=0;entryDy=0;" edge="1" parent="1" source="JGdbrBbD8qjHiPF7L-dN-24" target="JGdbrBbD8qjHiPF7L-dN-3">
          <mxGeometry relative="1" as="geometry" />
        </mxCell>
        <mxCell id="JGdbrBbD8qjHiPF7L-dN-24" value="Cliente faz login no site" style="text;html=1;align=center;verticalAlign=middle;whiteSpace=wrap;rounded=0;" vertex="1" parent="1">
          <mxGeometry x="60" y="40" width="120" height="60" as="geometry" />
        </mxCell>
        <mxCell id="JGdbrBbD8qjHiPF7L-dN-27" value="" style="rounded=1;whiteSpace=wrap;html=1;" vertex="1" parent="1">
          <mxGeometry x="670" y="280" width="120" height="60" as="geometry" />
        </mxCell>
        <mxCell id="JGdbrBbD8qjHiPF7L-dN-30" style="edgeStyle=orthogonalEdgeStyle;rounded=0;orthogonalLoop=1;jettySize=auto;html=1;exitX=0;exitY=0.5;exitDx=0;exitDy=0;entryX=1;entryY=0.5;entryDx=0;entryDy=0;" edge="1" parent="1" source="JGdbrBbD8qjHiPF7L-dN-28" target="JGdbrBbD8qjHiPF7L-dN-21">
          <mxGeometry relative="1" as="geometry" />
        </mxCell>
        <mxCell id="JGdbrBbD8qjHiPF7L-dN-28" value="Cliente faz o pagamento da reserva" style="text;html=1;align=center;verticalAlign=middle;whiteSpace=wrap;rounded=0;" vertex="1" parent="1">
          <mxGeometry x="670" y="280" width="120" height="60" as="geometry" />
        </mxCell>
      </root>
    </mxGraphModel>
  </diagram>
</mxfile>
